# xmcd CD database file
#
# Track frame offsets:
#	150
#	18217
#	37507
#	54130
#	75962
#	91200
#	106920
#	125435
#	149015
#	172840
#
# Disc length: 2573 seconds
#
# Revision: 3
# Processed by: cddbd v1.5.2PL0 Copyright (c) Steve Scherf et al.
# Submitted via: CDex 2.07
#
DISCID=640a0b0a
DTITLE=Lam Nhat Tien and Lam Thuy Van and Le Tam - Dinh Gio Hu
DYEAR=1998
DGENRE=Vietnamese
TTITLE0=Lam Nhat Tien - Dinh Gio Hu (NL, HA: Truc Ho)
TTITLE1=Lam Thuy Van - Noi Dao Ngoc Ngao (NL: Quoc Dung, HA: Truc Sinh)
TTITLE2=Lam Thuy Van and Lam Nhat Tien - 7 Con So Mot Linh Hon (NL: Quoc Dung, HA: Truc Sinh)
TTITLE3=Le Tam - Neu Co Em (NL, HA: Sy Dan)
TTITLE4=Lam Nhat Tien - Coi Binh Yen (NL: Quoc Dung, HA: Vu Tuan Duc)
TTITLE5=Lam Nhat Tien and Gia Huy and Huy Tam - Toi Tro Ve Thanh Pho (NL: Y Van, HA: Sy Dan)
TTITLE6=Lam Thuy Van - Mua Thu Cho Em (NL: Ngo Thuy Mien, HA: Sy Dan)
TTITLE7=Le Tam - Con Yeu Em Mai (NL: Nguyen Trung Cang, HA: Sy Dan)
TTITLE8=Lam Nhat Tien - Rang Anh Xin Hua Mai Gan Em (N: Truc Sinh, L: Dang Hien)
TTITLE9=Lam Nhat Tien - Men Tinh Nong (N: Truc Sinh, L: Le Duc Long, HA: Tru Sinh)
EXTD=YEAR: 1998
EXTT0=
EXTT1=
EXTT2=
EXTT3=
EXTT4=
EXTT5=
EXTT6=
EXTT7=
EXTT8=
EXTT9=
PLAYORDER=
